<svg width="99" height="73" viewBox="0 0 99 73" fill="none" xmlns="http://www.w3.org/2000/svg">
<path d="M17.2502 72.1172C16.3634 71.5791 13.9608 70.8258 11.4453 72.1172C11.4453 69.3499 12.1709 58.8386 12.4128 54.1496C13.1384 52.6123 14.8315 51.8436 15.799 53.2076C17.45 55.5353 17.2502 66.8901 17.2502 72.1172Z" fill="#000000"/>
<path d="M96 20.1498L49.7337 37.6016L20 26.5L54 13.5L49.0327 11.5403L14.6834 24.3382L3 20.1498L49.7337 2L96 20.1498Z" stroke="#000000" stroke-width="2"/>
<path d="M21.8906 50.8879V33.0625L49.6165 43.2484L77.1094 33.0625V50.4249C54.7423 65.0093 29.5016 56.4439 21.8906 50.8879Z" stroke="#000000" stroke-width="2"/>
<rect x="13.625" y="29.9766" width="1.45312" height="14.5312" fill="#000000"/>
<circle cx="14.7148" cy="48.5039" r="2.54297" fill="#000000"/>
</svg>
