<svg width="87" height="87" viewBox="0 0 87 87" fill="none" xmlns="http://www.w3.org/2000/svg">
<path d="M55.5 32L64 23.5" stroke="#000000" stroke-width="2" stroke-linecap="round"/>
<path d="M61.9998 59L24.4998 21.5C20.0998 25.9 22.6664 32 24.4998 34.5C28.3331 38.6667 36.4998 47.5 38.4998 49.5C40.4998 51.5 43.9998 49.6667 45.4998 48.5C46.3331 48.8333 47.7998 49.9 46.9998 51.5C46.1998 53.1 47.3331 55.5 47.9998 56.5L56.9998 65.5C58.1664 66.5 60.9998 68 62.9998 66C64.9998 64 63.1664 60.5 61.9998 59Z" stroke="#000000" stroke-width="2" stroke-linecap="round"/>
<circle cx="43.5" cy="43.5" r="42" stroke="#000000" stroke-width="3"/>
<path d="M31.4995 50L21.9995 59.5C20.9995 60.6667 19.4995 63.5 21.4995 65.5C23.4995 67.5 26.3332 66.3333 27.5 65.5L37.5 55.5" stroke="#000000" stroke-width="2" stroke-linecap="round"/>
<path d="M47.5 36.5L49 35C50.5 33.5 50 31 50 30.5C50 30 50.8333 28 51.5 27.5L60.5 18.5" stroke="#000000" stroke-width="2" stroke-linecap="round"/>
<path d="M51 40L52.5 38.5C54 37 56.5 37.5 57 37.5C57.5 37.5 59.5 36.6667 60 36L69 27" stroke="#000000" stroke-width="2" stroke-linecap="round"/>
</svg>
