<svg width="73" height="72" viewBox="0 0 73 72" fill="none" xmlns="http://www.w3.org/2000/svg">
<rect x="11.5" y="11.7159" width="49" height="49" rx="5.5" stroke="#000000" stroke-width="3"/>
<rect x="21.5" y="21.7159" width="29" height="29" rx="5.5" stroke="#000000" stroke-width="3"/>
<path d="M21.8184 10.625V2" stroke="#000000" stroke-width="3" stroke-linecap="round"/>
<path d="M31.2266 10.625V2" stroke="#000000" stroke-width="3" stroke-linecap="round"/>
<path d="M40.6367 10.625V2" stroke="#000000" stroke-width="3" stroke-linecap="round"/>
<path d="M50.0449 10.625V2" stroke="#000000" stroke-width="3" stroke-linecap="round"/>
<path d="M21.8184 70.2159V61.5909" stroke="#000000" stroke-width="3" stroke-linecap="round"/>
<path d="M31.2266 70.2159V61.5909" stroke="#000000" stroke-width="3" stroke-linecap="round"/>
<path d="M40.6367 70.2159V61.5909" stroke="#000000" stroke-width="3" stroke-linecap="round"/>
<path d="M50.0449 70.2159V61.5909" stroke="#000000" stroke-width="3" stroke-linecap="round"/>
<path d="M62.375 21.8182L71 21.8182" stroke="#000000" stroke-width="3" stroke-linecap="round"/>
<path d="M62.375 31.2273L71 31.2273" stroke="#000000" stroke-width="3" stroke-linecap="round"/>
<path d="M62.375 40.6365L71 40.6365" stroke="#000000" stroke-width="3" stroke-linecap="round"/>
<path d="M62.375 50.0455L71 50.0455" stroke="#000000" stroke-width="3" stroke-linecap="round"/>
<path d="M2 21.8182L10.625 21.8182" stroke="#000000" stroke-width="3" stroke-linecap="round"/>
<path d="M2 31.2273L10.625 31.2273" stroke="#000000" stroke-width="3" stroke-linecap="round"/>
<path d="M2 40.6365L10.625 40.6365" stroke="#000000" stroke-width="3" stroke-linecap="round"/>
<path d="M2 50.0455L10.625 50.0455" stroke="#000000" stroke-width="3" stroke-linecap="round"/>
<path d="M23 33.2159L31 33.2159" stroke="#000000" stroke-width="3" stroke-linecap="round"/>
<path d="M22 39.2159L25 39.2159" stroke="#000000" stroke-width="3" stroke-linecap="round"/>
</svg>
