<svg width="86" height="74" viewBox="0 0 86 74" fill="none" xmlns="http://www.w3.org/2000/svg">
<path d="M35.8438 1.15625V68.2188M67.6406 36.4219H1.73438" stroke="#000000" stroke-width="3"/>
<circle cx="35.2656" cy="35.2656" r="33.7656" stroke="#000000" stroke-width="3"/>
<path d="M17.9219 6.9375C22.5469 17.3438 25.3219 41.7406 15.6094 63.0156M51.4531 6.9375C46.8281 17.3438 44.0531 41.7406 53.7656 63.0156" stroke="#000000" stroke-width="3"/>
<circle cx="65.9062" cy="55.5" r="17" fill="white" stroke="#000000" stroke-width="3"/>
<path d="M56.7614 40.4688C59.2841 46.0474 60.7977 59.1261 55.5 70.5313M75.0511 40.4688C72.5284 46.0474 71.0148 59.1261 76.3125 70.5313" stroke="#000000" stroke-width="3"/>
<path d="M9.8069 15.031C10.9632 14.4529 4.43892 23.9851 6.34256 20.8124C5.76443 18.4999 4.61318 17.922 3.45871 19.0781C2.30439 19.656 9.22992 8.67171 7.4944 12.7185C5.75887 16.7653 8.65065 15.6091 9.8069 15.031Z" fill="white"/>
<path d="M81.7892 65.9436C82.8942 63.4054 80.2878 63.0388 79.2031 64.1719C78.0456 65.3811 82.6723 53.1872 81.5149 57.2342C80.3575 61.2812 83.2493 61.8592 84.9837 59.5467C86.1864 57.9431 83.1365 63.4954 81.7892 65.9436C81.715 66.114 81.6241 66.2942 81.5148 66.4844C80.9307 67.5015 81.1936 67.0258 81.7892 65.9436Z" fill="white"/>
</svg>
